<svg xmlns="http://www.w3.org/2000/svg" viewBox="0 0 218.37 51.61">
  <title>logo_nr_keaPortfolio_small</title>
  <g id="sub_logo" data-name="sub logo">
    <g>
      <path d="M61,23.35V.17H64.3V11.43L73.4.17h4.14L68.43,11.76l9.11,11.59H73.4L64.3,12.09V23.35Z" fill="#fff"/>
      <path d="M97.11,10.11v3.31H87.18V20h9.93v3.31H83.87V.17H97.11V3.48H87.18v6.63Z" fill="#fff"/>
      <path d="M121.24,23.35h-3.31l-1.54-5h-8.51l-1.54,5H103L110,.17h4.3Zm-12.35-8.28h6.49L112.13,3.48Z" fill="#fff"/>
      <path d="M64.3,41.66v9.93H61V28.42h9.1q5.79,0,5.79,5.79v1.66q0,5.79-5.79,5.79Zm0-9.93v6.62h5.79a2.19,2.19,0,0,0,2.48-2.48V34.21a2.19,2.19,0,0,0-2.48-2.48Z" fill="#fff"/>
      <path d="M96.31,45.8c0,3.86-1.94,5.79-5.8,5.79H86.38q-5.8,0-5.8-5.79V34.21q0-5.79,5.8-5.79h4.13c3.86,0,5.8,1.93,5.8,5.79Zm-12.42,0a2.19,2.19,0,0,0,2.49,2.48h4.13A2.19,2.19,0,0,0,93,45.8V34.21a2.2,2.2,0,0,0-2.49-2.48H86.38a2.2,2.2,0,0,0-2.49,2.48Z" fill="#fff"/>
      <path d="M110.85,41.66h-4.43v9.93h-3.31V28.42h9.1q5.79,0,5.79,5.79v1.66q0,5.21-3.87,5.73l3.87,10h-3.31Zm-4.43-9.93v6.62h5.79a2.19,2.19,0,0,0,2.48-2.48V34.21a2.19,2.19,0,0,0-2.48-2.48Z" fill="#fff"/>
      <path d="M138,38.35v3.31H128v9.93h-3.31V28.42H138v3.31H128v6.62Z" fill="#fff"/>
      <path d="M160.43,45.8q0,5.79-5.79,5.79H150.5c-3.86,0-5.8-1.93-5.8-5.79V34.21c0-3.86,1.94-5.79,5.8-5.79h4.14q5.79,0,5.79,5.79ZM148,45.8a2.19,2.19,0,0,0,2.49,2.48h4.14a2.19,2.19,0,0,0,2.48-2.48V34.21a2.19,2.19,0,0,0-2.48-2.48H150.5A2.2,2.2,0,0,0,148,34.21Z" fill="#fff"/>
      <path d="M170.54,48.28h9.93v3.31H167.23V28.42h3.31Z" fill="#fff"/>
      <path d="M190.51,28.42V51.59H187.2V28.42Z" fill="#fff"/>
      <path d="M213.05,45.8q0,5.79-5.79,5.79h-4.14q-5.79,0-5.79-5.79V34.21q0-5.79,5.79-5.79h4.14q5.79,0,5.79,5.79Zm-12.41,0a2.19,2.19,0,0,0,2.48,2.48h4.14a2.19,2.19,0,0,0,2.48-2.48V34.21a2.19,2.19,0,0,0-2.48-2.48h-4.14a2.19,2.19,0,0,0-2.48,2.48Z" fill="#fff"/>
    </g>
  </g>
  <g id="Logo">
    <g>
      <path d="M33.61.13c2.17,2.58,2.13,8.63-.31,14.74a13.28,13.28,0,0,1-1,2c4-.71,7.49.06,8.27,2.05.94,2.44-2.44,5.76-7.55,7.44a13.67,13.67,0,0,1-7.91-.2,13.29,13.29,0,0,1-.54,7.34c-2.07,5-5.66,8.07-8,6.94-1.93-.93-2.42-4.43-1.39-8.4a13.57,13.57,0,0,1-2,.82C8,34.43,2.94,34.41,0,33v18.6H38l0,0,.18-.33c.12-.22.23-.44.34-.66l.15-.33.07-.16.07-.17L39,49.6l.11-.33A8.62,8.62,0,0,0,39.19,44a12.32,12.32,0,0,0-1-2.44,18,18,0,0,0-1.34-2.21l-.17-.26-.19-.25-.37-.49c-.25-.33-.5-.64-.74-.94l-.74-.88-.73-.81c-1-1-1.83-1.93-2.57-2.65S30,31.81,29.64,31.43L29,30.84l.76.4.9.49c.35.2.75.43,1.2.71s.93.58,1.45.93,1.08.76,1.68,1.19a28.89,28.89,0,0,1,3.73,3.3l.48.52.46.56c.16.18.31.39.46.59l.23.3c.08.1.15.21.22.31A14.52,14.52,0,0,1,42.15,43a11.56,11.56,0,0,1,.81,3.5,10.86,10.86,0,0,1,0,1.89l-.06.47c0,.16,0,.32-.07.48s-.12.63-.2.93-.08.31-.13.47l-.14.45-.07.23-.07.18h9.34V.13Z" fill="#fff"/>
      <path d="M0,24.8a22.55,22.55,0,0,1,8.45-4.55c4.48-1.4,9.32-.27,12.39.82-.77-3.16-1.35-7.77.3-11.88s4-7.37,6.4-9.06H0Z" fill="#fff"/>
    </g>
  </g>
</svg>
