<svg xmlns="http://www.w3.org/2000/svg" viewBox="0 0 347.93 95.94">
  <title>logo_nr_keaPortfolio_medium</title>
  <g id="sub_logo" data-name="sub logo">
    <g>
      <path d="M0,95.93V60.39H5.1V77.65l14-17.26h6.35l-14,17.77,14,17.77H19.06L5.1,78.67V95.93Z" fill="#fff"/>
      <path d="M55.16,75.62V80.7H39.92V90.85H55.16v5.08H34.84V60.39H55.16v5.07H39.92V75.62Z" fill="#fff"/>
      <path d="M91.9,95.93H86.82l-2.36-7.62h-13L69,95.93H64L74.63,60.39h6.6ZM73,83.24h10l-5-17.78Z" fill="#fff"/>
      <path d="M120.9,80.7V95.93h-5.08V60.39h14q8.88,0,8.88,8.88v2.54q0,8.89-8.88,8.89Zm0-15.24V75.62h8.89q3.81,0,3.81-3.81V69.27q0-3.81-3.81-3.81Z" fill="#fff"/>
      <path d="M170.47,87.05q0,8.88-8.88,8.88h-6.35q-8.88,0-8.89-8.88V69.27q0-8.88,8.89-8.88h6.35q8.88,0,8.88,8.88Zm-19,0q0,3.8,3.81,3.8h6.35q3.81,0,3.81-3.8V69.27q0-3.81-3.81-3.81h-6.35q-3.81,0-3.81,3.81Z" fill="#fff"/>
      <path d="M192.49,80.7h-6.8V95.93h-5.08V60.39h14q8.88,0,8.88,8.88v2.54q0,8-5.94,8.79l5.94,15.33h-5.07Zm-6.8-15.24V75.62h8.89q3.81,0,3.81-3.81V69.27q0-3.81-3.81-3.81Z" fill="#fff"/>
      <path d="M233.8,75.62V80.7H218.57V95.93h-5.08V60.39H233.8v5.07H218.57V75.62Z" fill="#fff"/>
      <path d="M267.94,87.05q0,8.88-8.89,8.88H252.7q-8.88,0-8.88-8.88V69.27q0-8.88,8.88-8.88h6.35q8.9,0,8.89,8.88Zm-19,0q0,3.8,3.8,3.8h6.35q3.81,0,3.81-3.8V69.27q0-3.81-3.81-3.81H252.7q-3.8,0-3.8,3.81Z" fill="#fff"/>
      <path d="M283.15,90.85h15.24v5.08H278.08V60.39h5.07Z" fill="#fff"/>
      <path d="M313.49,60.39V95.93h-5.08V60.39Z" fill="#fff"/>
      <path d="M347.78,87.05q0,8.88-8.89,8.88h-6.35q-8.88,0-8.89-8.88V69.27q0-8.88,8.89-8.88h6.35q8.88,0,8.89,8.88Zm-19,0q0,3.8,3.81,3.8h6.35q3.81,0,3.81-3.8V69.27q0-3.81-3.81-3.81h-6.35q-3.81,0-3.81,3.81Z" fill="#fff"/>
    </g>
  </g>
  <g id="Logo">
    <g>
      <path d="M66.27,0,88.33,36.77V0h7.35V51.47H88.33L66.27,14.71V51.47H58.92V0Z" fill="#fff"/>
      <path d="M107.38,36v2.58q0,5.51,5.51,5.51H127.6v7.35H112.89Q100,51.47,100,38.61v-11q0-12.87,12.86-12.87h3.68q12.87,0,12.87,12.87V36Zm0-5.88h14.71V27.58q0-5.52-5.52-5.52h-3.68q-5.51,0-5.51,5.52Z" fill="#fff"/>
      <path d="M141.14,36v2.58c0,3.67,1.83,5.51,5.51,5.51h14.71v7.35H146.65q-12.87,0-12.87-12.86v-11q0-12.87,12.87-12.87h3.68q12.87,0,12.87,12.87V36Zm0-5.88h14.7V27.58q0-5.52-5.51-5.52h-3.68c-3.68,0-5.51,1.84-5.51,5.52Z" fill="#fff"/>
      <path d="M189.6,0H197V51.47H190.7l-1.1-3.67a12.47,12.47,0,0,1-9.19,3.67q-12.87,0-12.87-12.86v-11q0-12.87,12.87-12.87a12.47,12.47,0,0,1,9.19,3.67Zm0,42.28V23.9a20.41,20.41,0,0,0-9.19-1.84q-5.52,0-5.52,5.52v11q0,5.51,5.52,5.51A20.41,20.41,0,0,0,189.6,42.28Z" fill="#fff"/>
      <path d="M221.93,33.09h-7.35V51.47h-11V0h22.06q14.71,0,14.71,14.71v3.67q0,9-6.77,12.73l6.77,20.36h-11ZM214.58,11v11h11c2.45,0,3.68-1.22,3.68-3.68V14.71q0-3.68-3.68-3.68Z" fill="#fff"/>
      <path d="M253.43,37.5v1.11q0,3.68,3.68,3.67h16.54v9.19H257.11q-14.72,0-14.71-14.7V29.41q0-14.7,14.71-14.7h3.68q14.7,0,14.7,14.7V37.5Zm0-9.56v1.47h11V27.94q0-3.68-3.67-3.67h-3.68Q253.44,24.27,253.43,27.94Z" fill="#fff"/>
      <path d="M290.86,51.47h-11V14.71h9.93l1.1,2.94q1.84-2.94,7.36-2.94,14.7,0,14.7,14.7V51.47h-11V29.41q0-3.68-3.67-3.67-5.52,0-7.36,1.84Z" fill="#fff"/>
      <path d="M332.3,36.77q0,3.67,3.68,3.67h5.52v11H336q-14.7,0-14.71-14.7v-11h-5.51v-11h5.51v-11L332.3,0V14.71h9.2v11h-9.2Z" fill="#fff"/>
    </g>
    <g>
      <path d="M33.63,0c2.17,2.58,2.14,8.63-.31,14.73a12.06,12.06,0,0,1-1,2c4-.72,7.49.05,8.27,2.05.94,2.43-2.44,5.76-7.55,7.44a13.76,13.76,0,0,1-7.91-.2,13.31,13.31,0,0,1-.54,7.34c-2.07,5-5.66,8.07-8,6.93-1.93-.93-2.42-4.43-1.39-8.4a14.26,14.26,0,0,1-2,.83C8,34.3,3,34.27,0,32.88V51.47H38l0,0,.18-.33c.12-.22.23-.44.34-.66l.15-.33.07-.17.07-.16.13-.34.11-.33a8.7,8.7,0,0,0,.14-5.24,12.61,12.61,0,0,0-1-2.44,17.18,17.18,0,0,0-1.34-2.2L36.72,39c-.06-.09-.13-.17-.19-.25l-.36-.5-.75-.94-.74-.87L34,35.61c-1-1-1.83-1.92-2.56-2.65L29.66,31.3,29,30.7l.76.4c.25.13.55.29.9.5s.76.43,1.2.7.94.58,1.46.94S34.44,34,35,34.42a29,29,0,0,1,3.73,3.31l.48.52.46.55c.17.19.31.39.46.59l.23.3a3.62,3.62,0,0,1,.22.32,14.71,14.71,0,0,1,1.56,2.86,11.71,11.71,0,0,1,.81,3.5,11,11,0,0,1,0,1.9c0,.15,0,.31-.06.47a3.54,3.54,0,0,1-.07.47c-.06.32-.12.63-.2.94,0,.15-.08.31-.13.46l-.14.46-.07.23-.07.17h9.34V0Z" fill="#fff"/>
      <path d="M0,24.66a22.83,22.83,0,0,1,8.45-4.55c4.48-1.39,9.32-.26,12.4.82-.78-3.15-1.35-7.77.29-11.88s4-7.36,6.4-9H0Z" fill="#fff"/>
    </g>
  </g>
</svg>
