<svg xmlns="http://www.w3.org/2000/svg" viewBox="0 0 422.41 106.74">
  <title>logo_nr_keaPortfolio</title>
  <g id="sub_logo" data-name="sub logo">
    <g>
      <path d="M79.85,106.66V71.11h5.08V88.38l14-17.27h6.34l-14,17.78,14,17.77H98.9l-14-17.26v17.26Z" fill="#fff"/>
      <path d="M134.47,86.35v5.08H119.24v10.15h15.23v5.08H114.16V71.11h20.31v5.08H119.24V86.35Z" fill="#fff"/>
      <path d="M170.69,106.66h-5.08L163.25,99H150.2l-2.36,7.62h-5.08l10.67-35.55H160ZM151.75,94h9.95l-5-17.78Z" fill="#fff"/>
      <path d="M198.66,91.43v15.23h-5.08V71.11h14q8.9,0,8.89,8.89v2.54q0,8.88-8.89,8.89Zm0-15.24V86.35h8.88q3.81,0,3.81-3.81V80q0-3.81-3.81-3.81Z" fill="#fff"/>
      <path d="M248,97.77q0,8.9-8.89,8.89h-6.35q-8.88,0-8.88-8.89V80q0-8.88,8.88-8.89h6.35Q248,71.11,248,80Zm-19,0q0,3.81,3.8,3.81h6.35q3.81,0,3.81-3.81V80q0-3.81-3.81-3.81h-6.35q-3.79,0-3.8,3.81Z" fill="#fff"/>
      <path d="M269.47,91.43h-6.8v15.23h-5.08V71.11h14q8.9,0,8.89,8.89v2.54q0,8-5.94,8.79l5.94,15.33h-5.08Zm-6.8-15.24V86.35h8.88q3.81,0,3.81-3.81V80q0-3.81-3.81-3.81Z" fill="#fff"/>
      <path d="M310.25,86.35v5.08H295v15.23h-5.08V71.11h20.31v5.08H295V86.35Z" fill="#fff"/>
      <path d="M343.87,97.77q0,8.9-8.88,8.89h-6.35q-8.89,0-8.89-8.89V80q0-8.88,8.89-8.89H335q8.88,0,8.88,8.89Zm-19,0q0,3.81,3.81,3.81H335q3.81,0,3.81-3.81V80q0-3.81-3.81-3.81h-6.35q-3.81,0-3.81,3.81Z" fill="#fff"/>
      <path d="M358.57,101.58H373.8v5.08H353.49V71.11h5.08Z" fill="#fff"/>
      <path d="M388.38,71.11v35.55H383.3V71.11Z" fill="#fff"/>
      <path d="M422.15,97.77q0,8.9-8.89,8.89h-6.34q-8.9,0-8.89-8.89V80q0-8.88,8.89-8.89h6.34q8.89,0,8.89,8.89Zm-19,0q0,3.81,3.81,3.81h6.34q3.81,0,3.81-3.81V80q0-3.81-3.81-3.81h-6.34q-3.81,0-3.81,3.81Z" fill="#fff"/>
    </g>
  </g>
  <g id="Logo">
    <g>
      <path d="M88.74,0,115.4,44.43V0h8.88V62.2H115.4L88.74,17.77V62.2H79.85V0Z" fill="#fff"/>
      <path d="M138.42,43.54v3.11q0,6.68,6.66,6.67h17.77V62.2H145.08q-15.56,0-15.55-15.55V33.32q0-15.54,15.55-15.55h4.44q15.55,0,15.56,15.55V43.54Zm0-7.11h17.77V33.32q0-6.66-6.67-6.66h-4.44q-6.66,0-6.66,6.66Z" fill="#fff"/>
      <path d="M179.21,43.54v3.11q0,6.68,6.66,6.67h17.77V62.2H185.87q-15.54,0-15.55-15.55V33.32q0-15.54,15.55-15.55h4.45q15.54,0,15.55,15.55V43.54Zm0-7.11H197V33.32q0-6.66-6.66-6.66h-4.45q-6.66,0-6.66,6.66Z" fill="#fff"/>
      <path d="M237.77,0h8.89V62.2H239.1l-1.33-4.44a15.07,15.07,0,0,1-11.11,4.44q-15.54,0-15.55-15.55V33.32q0-15.54,15.55-15.55a15,15,0,0,1,11.11,4.45Zm0,51.1V28.88a24.73,24.73,0,0,0-11.11-2.22q-6.66,0-6.66,6.66V46.65q0,6.68,6.66,6.67A24.73,24.73,0,0,0,237.77,51.1Z" fill="#fff"/>
      <path d="M276.85,40H268V62.2H254.63V0h26.66q17.77,0,17.77,17.77v4.45q0,10.88-8.17,15.37l8.17,24.61H285.73ZM268,13.33V26.66h13.33q4.44,0,4.44-4.44V17.77q0-4.44-4.44-4.44Z" fill="#fff"/>
      <path d="M314.91,45.32v1.33c0,3,1.48,4.45,4.44,4.45h20V62.2h-20q-17.76,0-17.77-17.77V35.54q0-17.76,17.77-17.77h4.45q17.76,0,17.77,17.77v9.78Zm0-11.55v1.77h13.33V33.77c0-3-1.48-4.45-4.44-4.45h-4.45C316.39,29.32,314.91,30.81,314.91,33.77Z" fill="#fff"/>
      <path d="M360.15,62.2H346.82V17.77h12l1.34,3.56q2.22-3.55,8.88-3.56,17.78,0,17.77,17.77V62.2H373.47V35.54q0-4.44-4.44-4.44-6.66,0-8.88,2.22Z" fill="#fff"/>
      <path d="M410.22,44.43q0,4.44,4.45,4.44h6.66V62.2h-6.66q-17.78,0-17.78-17.77V31.1h-6.66V17.77h6.66V4.44L410.22,0V17.77h11.11V31.1H410.22Z" fill="#fff"/>
    </g>
    <g>
      <path d="M18.11,45a18.2,18.2,0,0,0,2.8-1.13c-1.42,5.47-.74,10.28,1.92,11.56,3.24,1.57,8.17-2.71,11-9.55a18.3,18.3,0,0,0,.74-10.1c3,.87,7.08,1.52,10.89.27,7-2.3,11.69-6.89,10.39-10.24C54.81,23.07,50.06,22,44.5,23a18.5,18.5,0,0,0,1.35-2.71c3.37-8.4,3.41-16.73.42-20.28H71V106.69H58.48l-.1,0c-.54-.33-1.1-.64-1.62-1s-1.06-.74-1.59-1.12l-.75-.62-.38-.32-.36-.34c-.49-.43-.93-.92-1.39-1.4s-.86-1-1.23-1.56a9.12,9.12,0,0,1-.56-.82L50.24,99,50,98.64c-.18-.33-.37-.67-.55-1l-.14-.25-.12-.23L49,96.68c-.07-.16-.15-.31-.22-.46l-.21-.49-.21-.48c-.07-.16-.12-.33-.18-.49L48,94.27a4.5,4.5,0,0,1-.16-.48l-.15-.49c0-.16-.08-.32-.12-.49s-.09-.32-.12-.48l-.09-.48c-.07-.32-.08-.64-.12-1a3.71,3.71,0,0,1,0-.47c0-.15,0-.31,0-.46,0-.31,0-.62.06-.92s.09-.6.14-.9.08-.29.12-.44l0-.22.08-.22a10.22,10.22,0,0,1,.75-1.76,17.81,17.81,0,0,1,1.09-1.75c.41-.58.87-1.17,1.35-1.76,1-1.19,2-2.41,3.08-3.74.52-.66,1-1.37,1.53-2.1l.36-.57,0,0,0-.07,0-.07.07-.12.15-.26.15-.25.16-.27c.1-.2.21-.4.32-.59l.16-.3.14-.29.29-.59c.18-.39.35-.79.52-1.19.07-.21.15-.41.23-.62l.11-.3.1-.32.2-.62c.06-.21.12-.43.17-.64.12-.42.2-.86.28-1.29.05-.21.07-.43.1-.65s.06-.44.08-.65a15.19,15.19,0,0,0,0-2.61A16,16,0,0,0,58,59a19.68,19.68,0,0,0-2.14-3.94l-.3-.44-.32-.41c-.21-.28-.41-.56-.63-.81L54,52.66,53.34,52a40,40,0,0,0-5.14-4.56c-.82-.59-1.57-1.15-2.3-1.62s-1.4-.91-2-1.29-1.17-.7-1.65-1-.9-.51-1.24-.69l-1-.55.85.82c.55.52,1.36,1.31,2.37,2.29S45.4,47.6,46.72,49c.32.37.65.74,1,1.12s.67.8,1,1.21l1,1.29c.16.23.33.45.5.68l.25.35.25.36a24.66,24.66,0,0,1,1.84,3A17.1,17.1,0,0,1,54,60.43a12,12,0,0,1-.18,7.22c-.05.15-.1.3-.16.46l-.18.45-.09.23-.1.23-.2.45c-.15.31-.3.61-.46.91l-.26.45-.12.23-.13.21-.26.43c0,.07-.1.15-.15.24l-.16.24-.16.25-.09.12,0,.07s0,0,0,0l0,0-.3.42c-.41.56-.85,1.13-1.34,1.7-1,1.15-2,2.32-3.14,3.63-.54.65-1.1,1.33-1.62,2.07a21,21,0,0,0-1.48,2.36,16,16,0,0,0-1.15,2.71l-.11.36c0,.12-.07.25-.1.37s-.12.49-.17.73a12.88,12.88,0,0,0-.21,1.5c-.06.5-.06,1-.07,1.5,0,.25,0,.49,0,.74a6,6,0,0,0,.06.73,13.31,13.31,0,0,0,.22,1.43l.15.69.18.68c.07.22.13.44.2.66l.23.65c.07.21.14.43.23.63l.26.62c.09.2.17.41.26.61l.29.58.29.59.31.58.33.58.16.28.15.25c.21.33.41.66.61,1l0,.08,0,0,0,.07.1.13.18.27c.13.18.26.35.38.53.24.36.53.68.8,1a20.27,20.27,0,0,0,1.71,1.86l.93.83.23.21.24.19.27.21H0V45.27C4.05,47.19,11,47.22,18.11,45Z" fill="#fff"/>
      <path d="M29.11,12.46c-2.27,5.67-1.48,12-.41,16.36-4.24-1.49-10.9-3.05-17.06-1.13A31.24,31.24,0,0,0,0,34V0H37.92C34.66,2.32,31.38,6.79,29.11,12.46Z" fill="#fff"/>
    </g>
  </g>
</svg>
